<svg xmlns="http://www.w3.org/2000/svg" width="25" height="24.977" viewBox="0 0 25 24.977">
  <g id="noun-employees-1510422" transform="translate(-69.937)">
    <path id="Path_33108" data-name="Path 33108" d="M274.765,184.369c1.933,0,3.515-3.125,3.515-5.351a3.547,3.547,0,1,0-7.03,0C271.25,181.244,272.832,184.369,274.765,184.369Z" transform="translate(-192.327 -167.184)" fill="#fff"/>
    <path id="Path_33109" data-name="Path 33109" d="M160.234,7.03c1.5,0,2.734-2.343,2.734-4a2.748,2.748,0,1,0-5.468,0C157.5,4.687,158.73,7.03,160.234,7.03Z" transform="translate(-83.655 0)" fill="#fff"/>
    <path id="Path_33110" data-name="Path 33110" d="M422.734,7.03c1.5,0,2.734-2.343,2.734-4a2.748,2.748,0,1,0-5.468,0C420,4.687,421.23,7.03,422.734,7.03Z" transform="translate(-334.438 0)" fill="#fff"/>
    <path id="Path_33111" data-name="Path 33111" d="M173.547,404.275c-.683-.625-4.745-1.777-4.745-1.777l-2.754,1.953-2.754-1.953s-4.062,1.152-4.745,1.777c-.723.664-1,2.871-1.094,4.2a.994.994,0,0,0,1.035,1.035h15.115a.994.994,0,0,0,1.035-1.035C174.542,407.146,174.269,404.939,173.547,404.275Z" transform="translate(-83.61 -384.532)" fill="#fff"/>
    <path id="Path_33112" data-name="Path 33112" d="M78.141,178.6a5.1,5.1,0,0,1,1.582-3.73c-.566-.176-1.015-.312-1.015-.312L76.579,176.1l-2.129-1.523a18.729,18.729,0,0,0-3.671,1.386c-.547.508-.762,2.226-.84,3.261a.774.774,0,0,0,.8.82h7.577a6.478,6.478,0,0,1-.176-1.445Z" transform="translate(0 -166.766)" fill="#fff"/>
    <path id="Path_33113" data-name="Path 33113" d="M416.087,175l-2.129,1.523L411.829,175s-.43.117-1.015.312a5.057,5.057,0,0,1,1.582,3.71,6.479,6.479,0,0,1-.176,1.445H419.8a.785.785,0,0,0,.8-.82c-.078-1.035-.273-2.754-.84-3.261A18.726,18.726,0,0,0,416.087,175Z" transform="translate(-325.662 -167.189)" fill="#fff"/>
  </g>
</svg>
